<svg xmlns="http://www.w3.org/2000/svg" width="960" height="320" viewBox="0 0 960 320" fill="none">
  <defs>
    <linearGradient id="kyrei-logo-surface" x1="66" y1="42" x2="272" y2="286" gradientUnits="userSpaceOnUse">
      <stop stop-color="#F2FF58"/>
      <stop offset="0.55" stop-color="#E4F222"/>
      <stop offset="1" stop-color="#C9D80C"/>
    </linearGradient>
  </defs>

  <rect width="960" height="320" rx="64" fill="#08090A"/>
  <rect x="1" y="1" width="958" height="318" rx="63" stroke="#FFFFFF" stroke-opacity="0.12" stroke-width="2"/>

  <rect x="52" y="44" width="232" height="232" rx="58" fill="url(#kyrei-logo-surface)"/>
  <rect x="54" y="46" width="228" height="228" rx="56" stroke="#FAFFC1" stroke-opacity="0.48" stroke-width="4"/>

  <!-- The source mark keeps the original 150x150 geometry unchanged. -->
  <svg x="96" y="78" width="144" height="144" viewBox="0 0 150 150" overflow="visible">
    <g fill="#040506">
      <polygon points="74.9 3.5 47.3 30.8 64.6 47.9 79.3 63.2 90.5 51.9 78.7 40.5 69.5 30.9 74.9 25.5 80.1 30.9 75.7 35.6 86.7 45.8 102.5 30.8"/>
      <path d="m108 37-32.3 31.7 10.8 10.8 21.5-21 5.4 5.5-5.4 5.5-4.7-4.5-11 10.8 15.6 15.4 28.2-27.1-28.1-27.8"/>
      <polygon points="41.7 36.3 14 64.1 41.7 91.2 57.8 75.2 74 59.2 63.3 47.5 41.7 69.6 36.3 64.1 41.7 58.5 46.5 63.3 57.7 51.8"/>
      <polyline points="55.5 88.9 63.3 81.2 74 92.1 70.8 94.9 70.8 150.2 55.5 150.2"/>
      <polygon points="59.3 75.8 78.6 95 78.6 150.2 94.4 150.2 94.3 88.8 70.2 64.8"/>
    </g>
  </svg>

  <text x="340" y="201" fill="#FFFFFF" font-family="Arial, Helvetica, sans-serif" font-size="132" font-weight="700" letter-spacing="4">KYREI</text>
  <rect x="342" y="230" width="492" height="4" rx="2" fill="#E4F222"/>
</svg>
